<svg id="Hand_with_phone" data-name="Hand with phone" xmlns="http://www.w3.org/2000/svg" viewBox="0 0 530.92 391"><defs><style>.cls-1{fill:#ffefd9;}.cls-2{fill:#fff;}.cls-3{fill:#2181f1;}.cls-4{fill:#2735ac;}.cls-5{fill:#f73a8a;}.cls-6{fill:#ffa398;}.cls-7{fill:#2736ad;}.cls-8{fill:#0b1b57;}.cls-9{fill:#e6e6e6;}.cls-10{fill:#1bcca3;}.cls-11{fill:#fbb03b;}.cls-12{fill:#ccc;}.cls-13{fill:#cb3af7;}.cls-14{fill:#4ab5f9;}.cls-15{fill:#faefee;}.cls-16{fill:#e48cff;}.cls-17{fill:#0081d8;}.cls-18{fill:#00b5ed;}.cls-19{fill:#2b6ed4;}.cls-20{fill:#1e64cc;}.cls-21{fill:#060e2c;}.cls-22{fill:#d5d4e0;}.cls-23{fill:#4d93ff;}.cls-24{fill:#144287;}.cls-25{fill:#13dcbe;}.cls-26{fill:#fb378f;}.cls-27{fill:#ffa39a;}.cls-28{fill:#14124f;}.cls-29{fill:#fb6cac;}.cls-30{fill:#46ffce;}.cls-31{fill:#fbcb81;}</style></defs><title>tourbookHero</title><path class="cls-1" d="M555.34,167.06c-6.27-17.57-17.77-33.85-34.17-42.71-21.32-11.51-47.49-9.19-70.22-17.57-17.53-6.46-32.07-18.93-48.07-28.58a166.37,166.37,0,0,0-92.52-23.65c-67.26,2.87-125.76,45.7-190.66,63.6-22.51,6.21-49.41,12.21-58.32,33.8l2.13-1.49c-4.36,7.27-6.4,16.69-6,25.22.67,16.25,6.47,32.53,3.23,48.47C58,237.61,49.17,248.89,43,261.16c-15.77,31.32-13.53,70.95,5.66,100.3s54.62,47.27,89.63,45.36c33.21-1.8,64.23-19.91,97.49-19.6,52.06.5,93.58,45,144.52,55.76,53.87,11.38,110.68-18.6,142.37-63.61s41.66-102.17,40.75-157.21C563.11,203.51,561.6,184.62,555.34,167.06Z" transform="translate(-32.55 -54.4)"/><path class="cls-2" d="M365.14,211.66c-1.5-.35-3.18.08-4.45-.84-.44-.33,0-1.19-1.06-1.59-.42-.17-.76,0-1.14,0-1.05,0-1.37,1.06-2.62,1.17-1.66.14-3.74-1.12-3.25-2.87.42-1.53,3-1.83,3.17-3.84a6,6,0,0,0-2.11-3.9c-.85-.47-2.32,0-3.24-.33-1.26-.5-1.84-1.55-2.81-2.43-2.54-2.31-5.95-5.58-9.53-5.75-.9,0-1.83.35-2.81,0-1.34-.41-2.48-2-3.94-1.87-1.83.21-1.61,3.61-4,2.64.47-2.24,1-4.22-2.1-3.71a12.64,12.64,0,0,0-6.79,4.3l.69,1.5-.21,1.92-1.37-1.28c-.44,2.06-.4,4.54-1.93,5.5-.92.57-1.87.13-2.8.94a8.36,8.36,0,0,0-2.2,4.6c-.06,1.83,1.34,1.92,1.51,3.31.2,1.58-.78,1.26-1.81,1.95-2.9,1.93-.83,2.34,1.22,4.24a7.59,7.59,0,0,1,2.22,2.88c.52,1.44-.17,2-.07,3.41.15,2.1,2.28,3.11,3.94,4.21s5.86,2.08,6.64,3.67c.6,1.23-.86,4.42-1.4,5.43-3.62,4-4,8.24-6.05,11.62s-1.68,6.82-3.33,10.11c-1.3,2.61-5,3.7-2.49,7.15a4.16,4.16,0,0,0,1.51,1.31c1.52-.12,3-.27,4.52-.47a42.68,42.68,0,0,0,5.58-4.73,6.14,6.14,0,0,0,1.82-2.64c.23-.58.24-1.82.7-2.2s1.59-.05,2.21-.41c.29-.18.3-.8.75-1,2-1,4.78.16,6.73-1s.84-1.68,1.64-3.24c.61-1.22,1.79-1.09,3.12-1.42,2.75-.67,3.19-1.58,5.16-3.42,2.12-2,5-3,7.54-4.46,2.81-1.56,4.78-3.79,7.25-5.81s3.68-2.84,4.63-5.83c1.59-5,6.69-7.56,6.26-13.18C367.5,214.79,368.17,212.37,365.14,211.66Z" transform="translate(-32.55 -54.4)"/><path class="cls-3" d="M370,125.6c-.25.27-.05,1.23-.41,1.53-1.05.9-3-.18-3.86-.72-2.91-1.83-4.5-5.1-7.37-7-.76-.5-2.93-1.13-1.15-2-.71-1.8-3.69-3.79-5.55-4,.13-4.12-1.15-2.88-4.77-4-2.88-.92-6.12-3.87-10.64-4.26-1.57,0-2.29-1.66-3.23-2.69,1.39-.75,4.3.09,6.06-.11a26.26,26.26,0,0,1,5.19-.27,38.84,38.84,0,0,1,4.21.32,83.77,83.77,0,0,0-90.05,4.47,21.83,21.83,0,0,1,7.5-.58c2.06.23,7.63,1.27,7.56-.62s-.15-2.45-2.22-2.54-6.78-.19-2.82-2.11a15.85,15.85,0,0,1,9.68-1c1.5.3,5.27-1.23,7.31-2.11s7.32-2.26,4,1.4-6.36,7.44-6.36,7.44-5.27,2.53.94,1.55c3.83-.61,6.24-1.8,8.53-2.25-3.21-.65-5.71-1.69-5.66-3.36,2.6-.89,5.93.94,8.66.71,1.49-.12,2.85-.84,4.43-.86a31.16,31.16,0,0,1,7.89,1.37c1.7.44,4.8,1.91,6.26.32a26,26,0,0,0-5.07-4.4c-2.43-1.58-7.85-1-8.91-3.62,2.24-.33,4.18-1,6.5-.71,3.69.38,7.37.81,11.06,1.21,4.32.47,10.28,0,14.25,2,1.29,2.41-.74,1.53-2.62,1.46-4-.15-9.75.14-13.33,1.79,3.59,1.79-.65,4.22-.51,6.53-1.52.65-3.52.27-5.15.39,1.44.77,3.09,1.1,4.56,1.85-2,.31-4,1-6,1.15.06-.07.12-.15.18-.21-1.27-1-4.16-1.81-4.29-3.44a1.23,1.23,0,0,0,1.42-1.07c-.52,0-4.09,0-8-.32,3.63,1.2,6.2,1.44,6.25.94s.14,2.52-2,6.45,13.16,6.53,13.46,7.62.58,6.12,3.93,5.93,2.41-3.62,2.41-3.62l2.82-1.31.42-3.89-2.47-1.93L326,114.6s4.54,3.42,10.45,8.23l6.76-1.76,8.76,9.28s1.32,2.36-.24,2.19-13.15.51-13.15.51l-2.35,2.52a33.5,33.5,0,0,0,5.33.58c1.28-.14,4.12,1.83,4.12,1.83s4.43,2.71,2,3.28-11.68,1.5-11.68,1.5.73-2.7-1.43-2.66-2.92,4.4-4.9,4.74-5.59-1.17-6.1.44.16,4.18-.57,5.21-5.95,3.24-5.95,3.24l-2.85,10.48L309,156.45l-5.33.53-2.34,1.13-3.77-1.79-8.57,3,1.83,11.19,4.78,3.87,4.76-4.85,5,2.57L302.6,177l-.26,2.35,7.27.79,2.33,5-3.17,2.7,4.29,2.69,4.63.5.79,1.72a12.64,12.64,0,0,1,6.79-4.3c3.12-.51,2.57,1.47,2.1,3.71,2.37,1,2.15-2.43,4-2.64,1.46-.17,2.6,1.46,3.94,1.87,1,.31,1.91-.08,2.81,0,3.58.17,7,3.44,9.53,5.75,1,.88,1.55,1.93,2.81,2.43.92.36,2.39-.14,3.24.33a6,6,0,0,1,2.11,3.9c-.15,2-2.75,2.31-3.17,3.84-.49,1.75,1.59,3,3.25,2.87,1.25-.11,1.57-1.15,2.62-1.17.38,0,.72-.18,1.14,0,1,.4.62,1.26,1.06,1.59,1.27.92,2.95.49,4.45.84,3,.71,2.36,3.13,5.32,3.63.43,5.62-4.67,8.22-6.26,13.18-.95,3-2.23,3.87-4.63,5.83s-4.44,4.25-7.25,5.81c-2.54,1.41-5.42,2.48-7.54,4.46-2,1.84-2.41,2.75-5.16,3.42-1.33.33-2.51.2-3.12,1.42-.8,1.56.2,2.11-1.64,3.24s-4.72.07-6.73,1c-.45.22-.46.84-.75,1-.62.36-1.66,0-2.21.41s-.47,1.62-.7,2.2a6.14,6.14,0,0,1-1.82,2.64,42.68,42.68,0,0,1-5.58,4.73c35.84-4.67,65.7-32.33,73-69.38a19.61,19.61,0,0,1-.46-2.31A46.73,46.73,0,0,1,391,180.39c.25-.87.52-1.67.8-2.41a87.53,87.53,0,0,0-17.68-53C372.38,125.11,371.2,124.31,370,125.6Zm-30.37-10.17a1.57,1.57,0,0,0,1.85,1.76c.73,2.73-3,.44-3.72,0-1.45-.76-10.1-2.32-9.71-4.15.27-1.27,2.19-.49,2.09-2.14-.08-1.23-2.54-2.81-3.34-3.35-1.6-1.06-6.41-1.43-7.19-3.14-.87-1.89,1.58-2.46,3.07-2.49,3.57-.08,5.95,2.81,8.91,3.89,2.58,2.09,10.85,5.46,11.71,9.78A16.87,16.87,0,0,0,339.62,115.43Zm-18.7,61.47c-.29.75-1.08.77-1.72.24.09-1,1.17-.57,1.89-.5Zm-3.56-5.52-3.11-.76c-.95-.5-3.82.1-3.41-1.63a17.2,17.2,0,0,1,7.35.85c1.21.53,1.79,1.65,3,2.26s1.86.55,2.3,1.83C321,174.26,319.6,171.65,317.36,171.38Zm14,5.68c-.49.34-.73,1.38-1.19,1.85-.28-1.64-2-1.69-2.74-2.87.47-.87,1.41-.49,2.24-.41l1.08.26c.85.23,2.87.13,3.07,1.08C333.09,177,332,176.6,331.35,177.06Zm5.22,1.7c-1.63,1.51-.85-1-.82-1.77l-.3.25C336.05,176.18,337.86,177.57,336.57,178.76ZM351.23,138c-1.34-2.31.47-3.17,1.16-5.42l.79.36c-.94,3.95,1.6,5.15,4.09,7.35C355.26,140.16,352.41,140.08,351.23,138Z" transform="translate(-32.55 -54.4)"/><path class="cls-3" d="M354.09,105.87l-1.15-.76A8.8,8.8,0,0,0,354.09,105.87Z" transform="translate(-32.55 -54.4)"/><path class="cls-3" d="M317.67,225.87c-1.66-1.1-3.79-2.11-3.94-4.21-.1-1.4.59-2,.07-3.41a7.59,7.59,0,0,0-2.22-2.88c-2.05-1.9-4.12-2.31-1.22-4.24,1-.69,2-.37,1.81-1.95-.17-1.39-1.57-1.48-1.51-3.31a8.36,8.36,0,0,1,2.2-4.6c.93-.81,1.88-.37,2.8-.94,1.53-1,1.49-3.44,1.93-5.5l-2.72-2.51-3.68-.4-5.57-4.48-2.35-3.87-5.34-2L293.72,177l-4.93-.54-12.11-6-1.36-7.89-5.49-5.59-3.76-6.24-1.37-.15,5.07,9.49,1.38,2.59-7.45-8-2.78-7.51L256,141.2l.92-11,3.71-3.48-6.23-.12-1.35-4.17-2.27-2.06-1.85,2.44L247.58,118l-2.35.33a87.92,87.92,0,0,0-23.3,50.82c-5.21,47.79,28.47,90.66,75.24,95.76a84.34,84.34,0,0,0,15.38.27,4.16,4.16,0,0,1-1.51-1.31c-2.48-3.45,1.19-4.54,2.49-7.15,1.65-3.29,1.31-6.8,3.33-10.11s2.43-7.63,6.05-11.62c.54-1,2-4.2,1.4-5.43C323.53,228,319.29,227,317.67,225.87Z" transform="translate(-32.55 -54.4)"/><path class="cls-2" d="M389.64,193a19.61,19.61,0,0,0,.46,2.31c.5-2.53.9-5.1,1.18-7.7a89.63,89.63,0,0,0,.53-9.63c-.28.74-.55,1.54-.8,2.41A46.73,46.73,0,0,0,389.64,193Z" transform="translate(-32.55 -54.4)"/><path class="cls-2" d="M354.09,105.87a8.8,8.8,0,0,1-1.15-.76q-2.19-1.44-4.47-2.75a38.84,38.84,0,0,0-4.21-.32,26.26,26.26,0,0,0-5.19.27c-1.76.2-4.67-.64-6.06.11.94,1,1.66,2.73,3.23,2.69,4.52.39,7.76,3.34,10.64,4.26,3.62,1.15,4.9-.09,4.77,4,1.86.25,4.84,2.24,5.55,4-1.78.86.39,1.49,1.15,2,2.87,1.88,4.46,5.15,7.37,7,.86.54,2.81,1.62,3.86.72.36-.3.16-1.26.41-1.53,1.21-1.29,2.39-.49,4.14-.62A85.8,85.8,0,0,0,354.09,105.87Z" transform="translate(-32.55 -54.4)"/><path class="cls-2" d="M321.16,172.1c-1.18-.61-1.76-1.73-3-2.26a17.2,17.2,0,0,0-7.35-.85c-.41,1.73,2.46,1.13,3.41,1.63l3.11.76c2.24.27,3.59,2.88,6.1,2.55C323,172.65,322.28,172.68,321.16,172.1Z" transform="translate(-32.55 -54.4)"/><path class="cls-2" d="M330.74,175.89l-1.08-.26c-.83-.08-1.77-.46-2.24.41.74,1.18,2.46,1.23,2.74,2.87.46-.47.7-1.51,1.19-1.85.66-.46,1.74,0,2.46-.09C333.61,176,331.59,176.12,330.74,175.89Z" transform="translate(-32.55 -54.4)"/><path class="cls-2" d="M335.45,177.24l.3-.25c0,.77-.81,3.28.82,1.77C337.86,177.57,336.05,176.18,335.45,177.24Z" transform="translate(-32.55 -54.4)"/><path class="cls-2" d="M319.2,177.14c.64.53,1.43.51,1.72-.24l.17-.26C320.37,176.57,319.29,176.14,319.2,177.14Z" transform="translate(-32.55 -54.4)"/><path class="cls-2" d="M343.23,121.07l-6.76,1.76C330.56,118,326,114.6,326,114.6l-2.93,2.33,2.47,1.93-.42,3.89-2.82,1.31s.94,3.43-2.41,3.62-3.64-4.84-3.93-5.93-15.56-3.69-13.46-7.62,2-7,2-6.45-2.62.26-6.25-.94a51,51,0,0,1-5.67-.76c-2.29.45-4.7,1.64-8.53,2.25-6.21,1-.94-1.55-.94-1.55s3-3.77,6.36-7.44-2-2.29-4-1.4-5.81,2.41-7.31,2.11a15.85,15.85,0,0,0-9.68,1c-4,1.92.75,2,2.82,2.11s2.15.65,2.22,2.54-5.5.85-7.56.62a21.83,21.83,0,0,0-7.5.58,86.68,86.68,0,0,0-13.19,11.48l2.35-.33,1.35,4.87,1.85-2.44,2.27,2.06,1.35,4.17,6.23.12-3.71,3.48-.92,11,4.92,5.85,2.78,7.51,7.45,8L269.77,160l-5.07-9.49,1.37.15,3.76,6.24,5.49,5.59,1.36,7.89,12.11,6,4.93.54,4.21,4.64,5.34,2,2.35,3.87,5.57,4.48,3.68.4,2.72,2.51a5.28,5.28,0,0,1,.76-2l.13-.16-.79-1.72-4.63-.5-4.29-2.69,3.17-2.7-2.33-5-7.27-.79.26-2.35,2.75-4.91-5-2.57-4.76,4.85-4.78-3.87L289,159.27l8.57-3,3.77,1.79,2.34-1.13,5.33-.53,5.22,7.76,2.85-10.48s5.23-2.21,5.95-3.24.06-3.6.57-5.21,4.12-.1,6.1-.44,2.73-4.7,4.9-4.74,1.43,2.66,1.43,2.66,9.26-.94,11.68-1.5-2-3.28-2-3.28-2.84-2-4.12-1.83a33.5,33.5,0,0,1-5.33-.58l2.35-2.52s11.59-.68,13.15-.51.24-2.19.24-2.19Z" transform="translate(-32.55 -54.4)"/><path class="cls-2" d="M318.35,192.85a5.28,5.28,0,0,0-.76,2l1.37,1.28.21-1.92-.69-1.5Z" transform="translate(-32.55 -54.4)"/><path class="cls-2" d="M353.18,133l-.79-.36c-.69,2.25-2.5,3.11-1.16,5.42,1.18,2.05,4,2.13,6,2.29C354.78,138.12,352.24,136.92,353.18,133Z" transform="translate(-32.55 -54.4)"/><path class="cls-2" d="M343.29,115.64c-.86-4.32-9.13-7.69-11.71-9.78-3-1.08-5.34-4-8.91-3.89-1.49,0-3.94.6-3.07,2.49.78,1.71,5.59,2.08,7.19,3.14.8.54,3.26,2.12,3.34,3.35.1,1.65-1.82.87-2.09,2.14-.39,1.83,8.26,3.39,9.71,4.15.75.39,4.45,2.68,3.72,0a1.57,1.57,0,0,1-1.85-1.76A16.87,16.87,0,0,1,343.29,115.64Z" transform="translate(-32.55 -54.4)"/><path class="cls-2" d="M317.71,96.64c-3.69-.4-7.37-.83-11.06-1.21-2.32-.24-4.26.38-6.5.71,1.06,2.65,6.48,2,8.91,3.62a26,26,0,0,1,5.07,4.4c-1.46,1.59-4.56.12-6.26-.32a31.16,31.16,0,0,0-7.89-1.37c-1.58,0-2.94.74-4.43.86-2.73.23-6.06-1.6-8.66-.71-.05,1.67,2.45,2.71,5.66,3.36a7.73,7.73,0,0,1,4.44.33l1.23.43c3.95.33,7.52.32,8,.32a1.23,1.23,0,0,1-1.42,1.07c.13,1.63,3,2.48,4.29,3.44-.06.06-.12.14-.18.21,2-.2,4-.84,6-1.15-1.47-.75-3.12-1.08-4.56-1.85,1.63-.12,3.63.26,5.15-.39-.14-2.31,4.1-4.74.51-6.53,3.58-1.65,9.37-1.94,13.33-1.79,1.88.07,3.91,1,2.62-1.46C328,96.66,322,97.11,317.71,96.64Z" transform="translate(-32.55 -54.4)"/><path class="cls-2" d="M292.55,106a51,51,0,0,0,5.67.76l-1.23-.43A7.73,7.73,0,0,0,292.55,106Z" transform="translate(-32.55 -54.4)"/><path class="cls-4" d="M205,286.41l-9.26,2.6a.94.94,0,0,0,.5,1.81l9.26-2.6A.94.94,0,0,0,205,286.41Z" transform="translate(-32.55 -54.4)"/><path class="cls-4" d="M186.76,293.59l-7.64,5.83c-1,.73,0,2.36.94,1.63l7.65-5.84C188.66,294.49,187.72,292.86,186.76,293.59Z" transform="translate(-32.55 -54.4)"/><path class="cls-4" d="M173.09,306.77l-4.82,8.32a.94.94,0,0,0,1.62,1l4.83-8.32A.94.94,0,0,0,173.09,306.77Z" transform="translate(-32.55 -54.4)"/><path class="cls-4" d="M165.56,324.2c0,3.2-.07,6.41-.1,9.61a.94.94,0,0,0,1.88,0c0-3.2.07-6.41.1-9.61A.94.94,0,0,0,165.56,324.2Z" transform="translate(-32.55 -54.4)"/><path class="cls-4" d="M168.68,341.86a.94.94,0,0,0-1.81.5l2.61,9.25a.94.94,0,0,0,1.81-.49Z" transform="translate(-32.55 -54.4)"/><path class="cls-4" d="M176.71,357.26c-.89-.81-2.22.51-1.33,1.33l7.09,6.5c.89.82,2.22-.51,1.33-1.33Z" transform="translate(-32.55 -54.4)"/><path class="cls-5" d="M201.72,368.56l-9.59-.75c-1.2-.1-1.2,1.78,0,1.88l9.59.75C202.93,370.54,202.92,368.66,201.72,368.56Z" transform="translate(-32.55 -54.4)"/><path class="cls-4" d="M220.43,365.65l-9.36,2.19c-1.18.28-.68,2.09.5,1.82l9.36-2.2C222.11,367.18,221.61,365.37,220.43,365.65Z" transform="translate(-32.55 -54.4)"/><path class="cls-4" d="M238.69,357.12l-8.36,4.75a.94.94,0,0,0,.95,1.63l8.36-4.76A.94.94,0,0,0,238.69,357.12Z" transform="translate(-32.55 -54.4)"/><path class="cls-4" d="M249,344.56l-5.48,7.9c-.7,1,.93,1.94,1.62,1l5.48-7.9C251.3,344.52,249.67,343.57,249,344.56Z" transform="translate(-32.55 -54.4)"/><path class="cls-5" d="M191,344.74c-.13,4.28,1.3,10.68,6,20.2,4.69-9.52,6.13-15.92,6-20.2C202.74,337.09,191.2,337.09,191,344.74Zm6,4.1a3.59,3.59,0,1,1,3.59-3.59A3.58,3.58,0,0,1,197,348.84Z" transform="translate(-32.55 -54.4)"/><path class="cls-4" d="M476.57,147.08q-9.79,2.43-19.6,4.86a.58.58,0,0,1-.71-.24c-.21-.32-.48-.61-.72-.91a2,2,0,0,0-1.35-.79,2.67,2.67,0,0,0-2.43,2.24,5.28,5.28,0,0,0,.19.91l-.27.08c-2.21.55-4.42,1.09-6.62,1.65a.6.6,0,0,1-.69-.21c-4.32-4.7-8.62-9.42-13-14.09a9.16,9.16,0,0,0-5.39-2.8,1.68,1.68,0,0,0-2.11,1.93,1.93,1.93,0,0,0,0,.24,9.51,9.51,0,0,0,2.36,5.4q6.4,7,12.89,14a.72.72,0,0,1,.18.84c-.53,1.52-1,3-1.55,4.56l-.73,2.16a1.72,1.72,0,0,0-2.45.41l-.18.16a1.73,1.73,0,0,0,0,2.78c.25.23.49.5.76.71a.65.65,0,0,1,.21.86q-2.79,8.21-5.56,16.42c-.37,1.12-.76,2.25-1.15,3.39l1.52,1.65a5.37,5.37,0,0,0,.52-.57q4.53-6.6,9-13.22l1.71-2.49.35.33c.11.12.21.24.33.35.39.35.54.36.93,0l1.24-1.15a.46.46,0,0,0,.08-.7c-.31-.38-.62-.78-.95-1.14a.44.44,0,0,1,0-.63l2.4-3.5c.5-.74,1-1.48,1.55-2.26l.32.36c1.11,1.14,2.18,2.33,3.34,3.41,2.82,2.62,5.69,5.2,8.55,7.79a.65.65,0,0,1,.23.65c-.64,4-1.26,8.07-1.89,12.11,0,.11-.05.26,0,.33.24.3.51.57.82.91l5.38-9.79c1,.54,1.76.52,2.41-.05s.78-1.3.34-2.48L477.09,177c-.23-.26-.41-.42-.55-.61a.73.73,0,0,0-.75-.31q-6.06.45-12.13.86a.7.7,0,0,1-.51-.19c-1.31-1.69-2.61-3.39-3.92-5.09a82.65,82.65,0,0,0-6.39-7.83,3.45,3.45,0,0,1-.23-.28l.11-.1q3-1.71,6-3.41a.43.43,0,0,1,.4,0c.36.32.69.68,1,1s.53.34.89,0,.78-.7,1.16-1.06.41-.54.05-1c-.19-.23-.4-.44-.62-.68l.46-.27L478.19,149c.24-.14.44-.33.69-.51-.56-.6-1.07-1.15-1.54-1.67Z" transform="translate(-32.55 -54.4)"/><path class="cls-4" d="M473,192.54a.94.94,0,0,0-1.81.5c.91,3.08,1.81,6.15,2.71,9.23a.94.94,0,0,0,1.82-.5Z" transform="translate(-32.55 -54.4)"/><path class="cls-4" d="M474.74,209.5l.21,9.62a.94.94,0,0,0,1.88,0l-.21-9.62A.94.94,0,0,0,474.74,209.5Z" transform="translate(-32.55 -54.4)"/><path class="cls-4" d="M474.07,227q-1,4.7-2,9.41c-.25,1.18,1.56,1.68,1.81.49.66-3.13,1.33-6.27,2-9.4C476.13,226.3,474.32,225.79,474.07,227Z" transform="translate(-32.55 -54.4)"/><path class="cls-4" d="M470.2,243.44l-4.14,8.68c-.52,1.09,1.1,2,1.62.95l4.14-8.68C472.34,243.3,470.72,242.35,470.2,243.44Z" transform="translate(-32.55 -54.4)"/><path class="cls-4" d="M460.78,261.3l-4.86,8.29a.94.94,0,0,0,1.62,1l4.86-8.3A.94.94,0,0,0,460.78,261.3Z" transform="translate(-32.55 -54.4)"/><path class="cls-4" d="M419,332l-9.52,1.36c-1.19.17-.68,2,.5,1.81l9.52-1.36C420.65,333.59,420.14,331.78,419,332Z" transform="translate(-32.55 -54.4)"/><path class="cls-4" d="M436.35,324,428,328.76a.94.94,0,0,0,.94,1.62l8.35-4.77A.94.94,0,0,0,436.35,324Z" transform="translate(-32.55 -54.4)"/><path class="cls-4" d="M448.6,310.33l-5.88,7.6c-.73.95.59,2.29,1.33,1.33l5.88-7.6C450.66,310.71,449.34,309.37,448.6,310.33Z" transform="translate(-32.55 -54.4)"/><path class="cls-4" d="M453.43,293q-.69,4.75-1.37,9.52c-.17,1.18,1.64,1.69,1.81.5l1.37-9.52C455.41,292.32,453.6,291.81,453.43,293Z" transform="translate(-32.55 -54.4)"/><path class="cls-5" d="M453.61,275.08c-.17-1.19-2-.68-1.81.5q.69,4.77,1.36,9.52c.18,1.2,2,.69,1.82-.5C454.52,281.43,454.07,278.26,453.61,275.08Z" transform="translate(-32.55 -54.4)"/><path class="cls-4" d="M442.46,260c-.77-.93-2.1.41-1.33,1.33l6.17,7.38c.78.93,2.1-.4,1.33-1.33Z" transform="translate(-32.55 -54.4)"/><path class="cls-4" d="M433.7,254.32l-9.4-2c-1.18-.25-1.69,1.56-.5,1.82l9.4,2C434.38,256.39,434.88,254.57,433.7,254.32Z" transform="translate(-32.55 -54.4)"/><path class="cls-4" d="M414.43,251.75l-9.57.94c-1.19.12-1.2,2,0,1.88l9.57-.94C415.63,253.51,415.64,251.63,414.43,251.75Z" transform="translate(-32.55 -54.4)"/><path class="cls-4" d="M394.07,255.22l-8.92,3.6c-1.1.45-.62,2.27.5,1.82l8.92-3.61C395.67,256.58,395.19,254.76,394.07,255.22Z" transform="translate(-32.55 -54.4)"/><path class="cls-4" d="M379,263.33l-6.48,7.11c-.82.89.51,2.22,1.33,1.33l6.48-7.11C381.11,263.77,379.78,262.44,379,263.33Z" transform="translate(-32.55 -54.4)"/><path class="cls-5" d="M447,243.07c-.12,4.29,1.31,10.69,6,20.21,4.69-9.52,6.12-15.92,6-20.21C458.73,235.42,447.19,235.42,447,243.07Zm6,4.1a3.59,3.59,0,1,1,3.59-3.58A3.58,3.58,0,0,1,453,247.17Z" transform="translate(-32.55 -54.4)"/><path class="cls-4" d="M133,292.82l-13.34,8.85-2.52,1.67-.2-.44c-.06-.15-.11-.3-.18-.45-.22-.47-.36-.54-.85-.37s-1,.4-1.58.6a.47.47,0,0,0-.34.62c.15.47.28.95.45,1.41.1.29,0,.43-.23.58l-3.54,2.35-2.29,1.5c-.06-.18-.11-.31-.17-.45-.59-1.47-1.13-3-1.8-4.41-1.63-3.5-3.32-7-5-10.44a.62.62,0,0,1,0-.69q3.17-5.25,6.31-10.5c.06-.1.15-.23.12-.32-.11-.36-.25-.71-.41-1.14l-8.67,7c-.77-.89-1.44-1.14-2.26-.86s-1.21.91-1.24,2.17l-11.16.37c.12.32.23.54.29.77a.73.73,0,0,0,.57.57q5.79,1.86,11.57,3.77a.63.63,0,0,1,.39.36c.59,2.06,1.15,4.13,1.72,6.19a81.81,81.81,0,0,0,3,9.67,3.37,3.37,0,0,1,.1.34.6.6,0,0,1-.14.05c-2.29.3-4.58.61-6.88.89a.42.42,0,0,1-.35-.19c-.22-.43-.38-.89-.58-1.32s-.36-.51-.83-.35-1,.35-1.47.54-.58.35-.42.9c.09.28.21.55.32.86l-.53.08-18.29,2.39a7.33,7.33,0,0,0-.83.22c.29.76.55,1.47.8,2.12.29,0,.54.05.79.09l20,2.88a.56.56,0,0,1,.57.49c.08.37.22.74.33,1.11a2,2,0,0,0,.95,1.24,2.69,2.69,0,0,0,3.1-1.16,5.19,5.19,0,0,0,.16-.92l.29,0,6.75,1a.61.61,0,0,1,.56.46c2.23,6,4.44,12,6.72,17.94a9.09,9.09,0,0,0,3.94,4.62,1.68,1.68,0,0,0,2.68-1,2.09,2.09,0,0,0,.08-.23,9.56,9.56,0,0,0-.15-5.89c-2.19-5.95-4.43-11.89-6.66-17.83a.72.72,0,0,1,.14-.85c1.07-1.2,2.1-2.43,3.15-3.64l1.49-1.72a1.73,1.73,0,0,0,2.43.54l.22-.08a1.73,1.73,0,0,0,1-2.58c-.15-.31-.26-.64-.44-.94a.67.67,0,0,1,.13-.88l11.33-13.12c.77-.9,1.55-1.8,2.35-2.71-.25-.65-.51-1.35-.79-2.1A7.65,7.65,0,0,0,133,292.82Z" transform="translate(-32.55 -54.4)"/><path class="cls-4" d="M95.89,267.33V277a.94.94,0,0,0,1.88,0v-9.62A.94.94,0,0,0,95.89,267.33Z" transform="translate(-32.55 -54.4)"/><path class="cls-4" d="M98.44,249.77q-.91,4.71-1.84,9.44c-.23,1.18,1.59,1.68,1.82.5l1.83-9.44C100.48,249.08,98.67,248.58,98.44,249.77Z" transform="translate(-32.55 -54.4)"/><path class="cls-4" d="M105.55,232.48q-2,4.38-4,8.76c-.5,1.1,1.12,2,1.62.95q2-4.38,4-8.77C107.66,232.33,106,231.37,105.55,232.48Z" transform="translate(-32.55 -54.4)"/><path class="cls-4" d="M113.79,214.16q-2,4.38-4,8.77c-.5,1.09,1.12,2,1.62.94l4-8.76C115.91,214,114.29,213.06,113.79,214.16Z" transform="translate(-32.55 -54.4)"/><path class="cls-4" d="M121.57,197.67q-2,4.4-3.95,8.77c-.49,1.09,1.13,2.05,1.63.95q2-4.38,4-8.77C123.69,197.53,122.07,196.57,121.57,197.67Z" transform="translate(-32.55 -54.4)"/><path class="cls-4" d="M142.78,186.31l-9.52,1.32c-1.2.17-.69,2,.5,1.82l9.52-1.33C144.48,188,144,186.14,142.78,186.31Z" transform="translate(-32.55 -54.4)"/><path class="cls-4" d="M141.55,171.08l-7,6.62c-.88.84.45,2.16,1.33,1.33q3.48-3.32,7-6.62C143.76,171.57,142.43,170.24,141.55,171.08Z" transform="translate(-32.55 -54.4)"/><path class="cls-4" d="M154.68,157.65,148,164.57c-.84.87.48,2.2,1.33,1.33L156,159C156.85,158.11,155.52,156.78,154.68,157.65Z" transform="translate(-32.55 -54.4)"/><path class="cls-4" d="M171.45,147l-8.7,4.09c-1.09.52-.14,2.14.95,1.63l8.7-4.1C173.5,148.12,172.54,146.49,171.45,147Z" transform="translate(-32.55 -54.4)"/><path class="cls-4" d="M190,144.83l-9.59.66c-1.2.08-1.21,2,0,1.88l9.59-.66C191.16,146.63,191.17,144.75,190,144.83Z" transform="translate(-32.55 -54.4)"/><path class="cls-4" d="M210.16,146.62l-9.55-1.13c-1.2-.14-1.19,1.74,0,1.88l9.55,1.13C211.36,148.64,211.35,146.76,210.16,146.62Z" transform="translate(-32.55 -54.4)"/><path class="cls-4" d="M161.38,187.35l-9.56-1c-1.2-.13-1.19,1.75,0,1.88l9.56,1C162.59,189.36,162.58,187.48,161.38,187.35Z" transform="translate(-32.55 -54.4)"/><path class="cls-4" d="M179.4,190.47l-9.41-2c-1.18-.25-1.68,1.56-.5,1.81l9.41,2C180.08,192.53,180.59,190.72,179.4,190.47Z" transform="translate(-32.55 -54.4)"/><path class="cls-5" d="M121.37,162.48c-.13,4.28,1.3,10.68,6,20.2,4.69-9.52,6.12-15.92,6-20.2C133.13,154.83,121.6,154.83,121.37,162.48Zm6,4.1A3.59,3.59,0,1,1,131,163,3.59,3.59,0,0,1,127.37,166.58Z" transform="translate(-32.55 -54.4)"/><path class="cls-5" d="M127.15,186c-.94,1.63-1.88,3.25-2.81,4.88a.94.94,0,0,0,1.62.94l2.81-4.87A.94.94,0,0,0,127.15,186Z" transform="translate(-32.55 -54.4)"/><path class="cls-6" d="M396.32,288.4C392.2,265.5,377.54,253.13,367,244s-19.69-32.05-19.69-32.05l-68.23,21.52L239.7,294.81v2.74s33.43,53.58,53.58,57.7c27.28,5.58,55.16,20.47,77.1,37.23,12.18,9.31,19.78,18.56,36.31,18.68,13.15.09,27.13-5.47,33.8-17.37,11.06-19.77-13.78-36.91-22.12-52C409.31,325.38,399.67,307,396.32,288.4Z" transform="translate(-32.55 -54.4)"/><path class="cls-6" d="M144.91,229.32c-11.91,5.5-5.5,9.16,2.75,12.36s46.25,23.36,55,31.6,11-8.24,11-8.24l-48.08-38.93S156.82,223.82,144.91,229.32Z" transform="translate(-32.55 -54.4)"/><path class="cls-7" d="M376.59,275.59,240,164c-2.45-2-6.37-2.24-8.71-.52L158.1,217.07c-2.35,1.71-2.26,4.75.19,6.75l136.6,111.57c2.45,2,6.37,2.23,8.72.51l73.17-53.55C379.12,280.63,379,277.59,376.59,275.59Z" transform="translate(-32.55 -54.4)"/><path class="cls-8" d="M376.59,275.59l-.28-.23-72.7,53.22a7.57,7.57,0,0,1-8.72-.52L158.57,216.72l-.47.35c-2.35,1.71-2.26,4.75.19,6.75l136.6,111.57c2.45,2,6.37,2.23,8.72.51l73.17-53.55C379.12,280.63,379,277.59,376.59,275.59Z" transform="translate(-32.55 -54.4)"/><path class="cls-9" d="M366.39,271.48a5.08,5.08,0,0,0-1.31-1.59l-123-100.45c-2.21-1.8-5.72-2-7.8-.52L169.17,216.2c-2.08,1.52-2,4.23.22,6l123,100.45a6.81,6.81,0,0,0,7.81.52l65.11-47.28A3.39,3.39,0,0,0,366.39,271.48Z" transform="translate(-32.55 -54.4)"/><path class="cls-8" d="M347.29,290.89,329,304.17c-1.94,1.41-.07,4.67,1.9,3.25l18.31-13.28C351.12,292.73,349.25,289.47,347.29,290.89Z" transform="translate(-32.55 -54.4)"/><polygon class="cls-10" points="181.54 48.04 184.82 199.2 254.97 197.01 251.71 46.78 181.54 48.04"/><rect class="cls-2" x="215.06" y="146.44" width="70.37" height="0.61" transform="translate(-36.74 -47) rotate(-1.68)"/><path class="cls-2" d="M238.41,205.17c0,2.61.09,5.23.14,7.84,0,2.85,4.49,2.78,4.44-.08-.05-2.61-.1-5.23-.14-7.84C242.79,202.23,238.36,202.31,238.41,205.17Z" transform="translate(-32.55 -54.4)"/><path class="cls-2" d="M273.94,204.53l.15,7.84c.05,2.85,4.49,2.78,4.43-.08q-.06-3.93-.14-7.84C278.33,201.59,273.89,201.67,273.94,204.53Z" transform="translate(-32.55 -54.4)"/><path class="cls-2" d="M278.52,129.55l-13.52.24,0,1,13.51-.24.09,0,0-1S278.55,129.54,278.52,129.55Z" transform="translate(-32.55 -54.4)"/><path class="cls-2" d="M278.31,118.05l-13.52.25,0,1,13.52-.24s.05,0,.08,0l0-1Z" transform="translate(-32.55 -54.4)"/><path class="cls-2" d="M278.43,125l-13.51.24,0,1,13.51-.25.08,0v-1Z" transform="translate(-32.55 -54.4)"/><path class="cls-2" d="M278.41,123.52l-13.52.24,0,1,13.52-.25.08,0,0-1Z" transform="translate(-32.55 -54.4)"/><path class="cls-2" d="M278.34,119.84l-13.51.24v1l13.52-.25.08,0v-1Z" transform="translate(-32.55 -54.4)"/><path class="cls-2" d="M278.47,126.92l-13.52.25,0,2,13.52-.25.08,0,0-2Z" transform="translate(-32.55 -54.4)"/><path class="cls-2" d="M278.37,121.23l-13.52.25,0,2,13.51-.25.09,0,0-2Z" transform="translate(-32.55 -54.4)"/><path class="cls-2" d="M278.21,112.36l-13.52.25,0,1,13.51-.24a.24.24,0,0,0,.09,0l0-1Z" transform="translate(-32.55 -54.4)"/><path class="cls-2" d="M278.24,114.2l-13.51.25v1l13.52-.24s.05,0,.08,0l0-1A.19.19,0,0,0,278.24,114.2Z" transform="translate(-32.55 -54.4)"/><path class="cls-2" d="M278.26,115.54l-13.51.25,0,2,13.51-.25.08,0,0-2Z" transform="translate(-32.55 -54.4)"/><path class="cls-2" d="M241.41,239.25q.12,6.83.25,13.67l4.27-.13q-.12-6.81-.25-13.62C245.63,236.42,241.36,236.49,241.41,239.25Z" transform="translate(-32.55 -54.4)"/><polygon class="cls-11" points="200.03 76.41 202.77 198.72 270.28 196.62 267.56 75.19 200.03 76.41"/><path class="cls-2" d="M294.58,156.89l-13,.23v1l13-.23s0,0,.08,0l0-.92Z" transform="translate(-32.55 -54.4)"/><path class="cls-2" d="M294.38,145.83l-13,.23v1l13-.23s.05,0,.08,0l0-.92Z" transform="translate(-32.55 -54.4)"/><path class="cls-2" d="M294.5,152.49l-13,.23v1l13-.24.08,0,0-.92Z" transform="translate(-32.55 -54.4)"/><path class="cls-2" d="M294.48,151.09l-13,.24,0,1,13-.23a.15.15,0,0,0,.08,0v-.92Z" transform="translate(-32.55 -54.4)"/><path class="cls-2" d="M294.41,147.55l-13,.23v1l13-.24.08,0,0-.92Z" transform="translate(-32.55 -54.4)"/><path class="cls-2" d="M294.54,154.37l-13,.23,0,1.93,13-.23.08,0,0-1.89Z" transform="translate(-32.55 -54.4)"/><path class="cls-2" d="M294.44,148.89l-13,.23,0,1.94,13-.24.08,0,0-1.89Z" transform="translate(-32.55 -54.4)"/><path class="cls-2" d="M294.28,140.35l-13,.24v1l13-.23.08,0,0-.93Z" transform="translate(-32.55 -54.4)"/><path class="cls-2" d="M294.32,142.13l-13,.23,0,1,13-.24.08,0v-.92S294.35,142.12,294.32,142.13Z" transform="translate(-32.55 -54.4)"/><path class="cls-2" d="M294.34,143.41l-13,.24,0,1.93,13-.23s.05,0,.08,0l0-1.89Z" transform="translate(-32.55 -54.4)"/><rect class="cls-2" x="233.68" y="179.07" width="67.54" height="0.58" transform="translate(-38.04 -45.94) rotate(-1.79)"/><rect class="cls-2" x="240.37" y="210.23" width="1.17" height="39.41" transform="translate(-39.47 -46.93) rotate(-1.75)"/><rect class="cls-2" x="242.8" y="223.78" width="1.17" height="25.8" transform="translate(-39.67 -46.85) rotate(-1.75)"/><rect class="cls-2" x="244.83" y="211.41" width="1.17" height="38.1" transform="translate(-39.48 -46.79) rotate(-1.75)"/><rect class="cls-2" x="247.06" y="217.13" width="1.17" height="32.31" transform="translate(-39.57 -46.72) rotate(-1.75)"/><rect class="cls-2" x="249.69" y="223.57" width="1.17" height="25.8" transform="translate(-39.66 -46.64) rotate(-1.75)"/><rect class="cls-2" x="283.32" y="219.14" width="1.17" height="29.2" transform="translate(-39.56 -45.61) rotate(-1.75)"/><rect class="cls-2" x="285.12" y="224.84" width="1.17" height="23.45" transform="translate(-39.65 -45.56) rotate(-1.75)"/><rect class="cls-2" x="287.02" y="238.22" width="1.17" height="10.01" transform="translate(-39.85 -45.5) rotate(-1.75)"/><rect class="cls-2" x="238.1" y="133.81" width="0.58" height="24.63" transform="translate(-36.91 -47.05) rotate(-1.75)"/><rect class="cls-2" x="241.04" y="133.71" width="1.17" height="24.63" transform="translate(-36.9 -46.94) rotate(-1.75)"/><path class="cls-12" d="M298,111.27a1.08,1.08,0,0,0-2.16,0q.1,20.94.22,41.88c0,2,0,4,0,6a1.08,1.08,0,0,0,2.16,0q-.11-20.94-.22-41.88C298,115.26,298,113.26,298,111.27Z" transform="translate(-32.55 -54.4)"/><path class="cls-12" d="M321.94,111.14a1.08,1.08,0,0,0-2.16,0L320,153l0,6a1.09,1.09,0,0,0,2.17,0q-.12-20.94-.23-41.88C322,115.13,322,113.13,321.94,111.14Z" transform="translate(-32.55 -54.4)"/><path class="cls-13" d="M337.3,155l-27.58.15h-1l-27.57.15s-7.26,4.39-7.73,12.2.5,91.62.5,91.62,3.19,8,14.42,8.32c9.8.28,19.25,0,21.5-.1s11.71.25,21.5-.14c11.22-.44,14.32-8.47,14.32-8.47s.06-83.82-.5-91.62S337.3,155,337.3,155Z" transform="translate(-32.55 -54.4)"/><path class="cls-14" d="M333.1,262.29c-3.33,0-6,2.32-6,5.14s2.73,5.1,6.07,5.08,6-2.32,6-5.14S336.44,262.27,333.1,262.29Z" transform="translate(-32.55 -54.4)"/><path class="cls-15" d="M333.12,265.21a2.22,2.22,0,1,0,2.59,2.18A2.41,2.41,0,0,0,333.12,265.21Z" transform="translate(-32.55 -54.4)"/><path class="cls-14" d="M285.85,262.55c-3.33,0-6,2.32-6,5.14s2.73,5.1,6.07,5.08,6-2.32,6-5.14S289.19,262.53,285.85,262.55Z" transform="translate(-32.55 -54.4)"/><path class="cls-15" d="M285.87,265.47a2.22,2.22,0,1,0,2.59,2.18A2.41,2.41,0,0,0,285.87,265.47Z" transform="translate(-32.55 -54.4)"/><rect class="cls-16" x="280.2" y="168.07" width="58.67" height="90.52" rx="4.34" transform="translate(-33.71 -52.7) rotate(-0.31)"/><rect class="cls-13" x="292.59" y="106.27" width="32.75" height="4.94" rx="2.35" transform="translate(-33.14 -52.71) rotate(-0.31)"/><path class="cls-2" d="M338.59,162.5l-51.32.28-7.35,0a.55.55,0,0,0,0,1.09l51.32-.28,7.35,0A.55.55,0,0,0,338.59,162.5Z" transform="translate(-32.55 -54.4)"/><path class="cls-17" d="M268.54,236.39a21.36,21.36,0,0,1,16.1,7.28c.7.8-.47,2-1.17,1.17A19.77,19.77,0,0,0,269,238.05c-5.61-.1-11.72,2.36-14.16,7.71-.44,1-1.87.13-1.43-.84C256,239.19,262.53,236.39,268.54,236.39Z" transform="translate(-32.55 -54.4)"/><path class="cls-18" d="M235,259.07c5.26-4.27,7.17-2.75,11-9.94s6.93-7.85,6.93-7.85h32.37s3.1.66,6.93,7.85,5.74,5.67,11,9.94,6,13.93,6,13.93H229S229.69,263.34,235,259.07Z" transform="translate(-32.55 -54.4)"/><path class="cls-19" d="M228.33,148.79v36.7a.83.83,0,0,1-1.66,0v-36.7A.83.83,0,0,1,228.33,148.79Z" transform="translate(-32.55 -54.4)"/><path class="cls-19" d="M210,148.79v36.7a.84.84,0,0,1-1.67,0v-36.7A.84.84,0,0,1,210,148.79Z" transform="translate(-32.55 -54.4)"/><path class="cls-20" d="M196.72,182.51h43.05s5.58,3.33,6,9.32,0,70.24,0,70.24-2.41,6.14-11,6.44c-7.51.25-14.76.06-16.48,0s-9,.24-16.49,0c-8.6-.3-11-6.44-11-6.44s-.4-64.25,0-70.24S196.72,182.51,196.72,182.51Z" transform="translate(-32.55 -54.4)"/><path class="cls-21" d="M200.38,264.72c2.56,0,4.63,1.75,4.63,3.92s-2.07,3.92-4.63,3.92-4.62-1.76-4.62-3.92S197.83,264.72,200.38,264.72Z" transform="translate(-32.55 -54.4)"/><path class="cls-22" d="M200.38,267a1.7,1.7,0,1,1-2,1.68A1.84,1.84,0,0,1,200.38,267Z" transform="translate(-32.55 -54.4)"/><path class="cls-21" d="M236.61,264.72c2.55,0,4.63,1.75,4.63,3.92s-2.08,3.92-4.63,3.92S232,270.8,232,268.64,234.05,264.72,236.61,264.72Z" transform="translate(-32.55 -54.4)"/><path class="cls-22" d="M236.61,267a1.7,1.7,0,1,1-2,1.68A1.85,1.85,0,0,1,236.61,267Z" transform="translate(-32.55 -54.4)"/><rect class="cls-23" x="163.2" y="137.99" width="44.98" height="69.4" rx="3.32"/><rect class="cls-24" x="173.14" y="90.6" width="25.11" height="3.79" rx="1.8"/><path class="cls-19" d="M195.76,188.24h45a.42.42,0,0,1,0,.83h-45A.42.42,0,0,1,195.76,188.24Z" transform="translate(-32.55 -54.4)"/><path class="cls-22" d="M256.17,228.55c3.09-.19,11-.13,16,4.79,6.34,6.22,22.77,40.57,22.77,40.57h-1.3c-1.3,0-18.87-33.08-23.34-37.75-3.52-3.68-11.08-4.45-14.11-4.62-3,.17-10.59.94-14.11,4.62-4.47,4.67-22,37.75-23.34,37.75h-1.3s16.43-34.35,22.77-40.57C245.2,228.42,253.08,228.36,256.17,228.55Z" transform="translate(-32.55 -54.4)"/><path class="cls-22" d="M228.42,198.72c3.6,9.62,7.5,28.19,21.52,29.63a85.63,85.63,0,0,0,16.94-.15c3-.29,6.15-1.44,9.22-1.09a10.59,10.59,0,0,1,1.1.2c1.35.34,7.89,3.12,4.39,4.28-2.87,1-6.85.65-9.86.82-5.44.31-10.8.1-16.24.15s-13.72.85-17.86-3.36c-5-5.08-20.93-46.58-19.78-50.84S224.81,189.09,228.42,198.72Z" transform="translate(-32.55 -54.4)"/><path class="cls-24" d="M304.34,265.59s4.71,3,8,4.68,3.67,2.1,2.49,3-8,.77-9.07,0a1.14,1.14,0,0,0-1.73.35s-2.63.49-3.19-.21,0-5.5,0-5.5A3.6,3.6,0,0,1,304.34,265.59Z" transform="translate(-32.55 -54.4)"/><path class="cls-25" d="M314.88,202.59c2.79,8.11-10.49,43.82-7.31,65a6.71,6.71,0,0,0-6.52,0s-10.3-28.69-7.88-43.76-22.38-14.5-24-15.06-13-8.11-13-8.11S312.08,194.48,314.88,202.59Z" transform="translate(-32.55 -54.4)"/><path class="cls-26" d="M244.4,153.38c13.84-1.34,23.69,10.21,23.69,10.21,2.92,2.95,9.31,17.46,13.3,22.56s20.51,8.29,20.51,8.29a16.89,16.89,0,0,0-1.35,3.54s-20.49-.54-22.88-1.08-10.12-5.37-13-8.33-4.79-2.42-4.79-2.42c-5.86,3.77-2.67,16.12-2.67,16.12-14.9,8.06-24,0-24,0s1.07-1.07,1.33-7-5.05-21-5.85-26.87S230.56,154.72,244.4,153.38Z" transform="translate(-32.55 -54.4)"/><path class="cls-27" d="M251.82,137.47a7,7,0,0,1,5.84-.14,5.31,5.31,0,0,1,2.87,2.85c1.63,4-1,9.21-3.9,11.87a5,5,0,0,1-1.63,1l-.79,3.39s-3.67,1.44-5.3-1.65l.55-3.52a6.11,6.11,0,0,1-.5-.69C246.21,146.24,247,140,251.82,137.47Z" transform="translate(-32.55 -54.4)"/><path class="cls-27" d="M276,193.83c3.08-1,7.12,3.83,7.12,3.83s-4.51.24-6.17-.48-2.38,0-3.33.48a4.48,4.48,0,0,1-2.61,0c1-1.91,0-2.87,0-2.87A18.68,18.68,0,0,0,276,193.83Z" transform="translate(-32.55 -54.4)"/><path class="cls-27" d="M301.9,194.44c1.07-.54,5.57,1.12,5.57,1.12l-.8,2.42h-6.12S300.84,195,301.9,194.44Z" transform="translate(-32.55 -54.4)"/><path class="cls-28" d="M247.68,134.84c.35-.58.09-1.3.34-1.91a3.74,3.74,0,0,1,1.29-1.39c2.25-1.64,2.86,0,4.69,0,1.12,0,2.19-.94,3.34-.41s1.61,1.94,2.76,2.48c.89.41,2.77.19,2.93,1.51,0,0,0,.09,0,.13.07.93-.22,1.58.73,2.26,1.43,1,1.84,2.26,1.63,4.32s-2.24,1.85-2.85,2.06-.41,2.26-1.22,2.88a15.7,15.7,0,0,0-2.68,2.9c.24-.74-.1-1.56,0-2.32s.42-1.59-.07-2.14a8.14,8.14,0,0,0-1.38-.93,8.07,8.07,0,0,1-2-1.83c-1.42-2.06-2.65-2.88-3.05-2.06s-1.43,2.47-2.45,2.47a2.86,2.86,0,0,0-2.19,3.91c.77,2.47,1.12,3.28,1.12,3.28a5.31,5.31,0,0,1-3-4.31c-.21-3.09.4-3.5-.62-4.73s-.61-3.09,0-4.32S247.07,135.86,247.68,134.84Z" transform="translate(-32.55 -54.4)"/><path class="cls-29" d="M245.07,166.41c3.59,6.85,3.06,18.94,3.06,22.16s23.28,6.16,23.28,6.16A2,2,0,0,1,271,198s-30.07,2.82-33.13.53-14-32.37-7.72-38S241.47,159.56,245.07,166.41Z" transform="translate(-32.55 -54.4)"/><path class="cls-30" d="M256.17,200.64s40.45-5.32,47.65,0,22,34.46,46.12,64.95a5.7,5.7,0,0,0-3.55,2.68s-34-18.69-39.89-33.61-18.1-11-26.78-8.39-32.41,9-41.65-3.63-4.85-20.37-4.85-20.37S243.15,206.32,256.17,200.64Z" transform="translate(-32.55 -54.4)"/><path class="cls-24" d="M318,164.37l1.44-4.53c.49-1.53,2.9-.88,2.41.66q-5.16,16.19-10.33,32.37c-.48,1.51-1,3-1.45,4.53s-2.89.88-2.4-.66Z" transform="translate(-32.55 -54.4)"/><path class="cls-24" d="M269.06,197l33.61.13,4.8,0a.83.83,0,0,1,0,1.66l-33.6-.13-4.81,0A.83.83,0,0,1,269.06,197Z" transform="translate(-32.55 -54.4)"/><path class="cls-24" d="M349.94,265.59s4.71,3,8,4.68,3.67,2.1,2.49,3-8,.77-9.07,0a1.14,1.14,0,0,0-1.73.35s-2.64.49-3.19-.21,0-5.5,0-5.5A3.62,3.62,0,0,1,349.94,265.59Z" transform="translate(-32.55 -54.4)"/><path class="cls-11" d="M208.47,240.76c1.16-3.17,11.95-3.06,13.35-3,4.72.1,9.44.26,14.16.13s9.39-.65,14.11-.24c2.63.23,5.41.33,5.53,3.14,0,0,.17,4.14.33,9.37.25,8.7.44,20.42-.33,21.2a8.82,8.82,0,0,1-8.93,1.73c-4.22-1.49-14.64-2.48-14.64-2.48s-10.42,1-14.64,2.48a8.84,8.84,0,0,1-8.94-1.73c-.77-.78-.58-12.5-.32-21.2C208.3,244.9,208.47,240.76,208.47,240.76Z" transform="translate(-32.55 -54.4)"/><path class="cls-31" d="M235.34,232a15.63,15.63,0,0,1,6.46,5c1,1.27-1.18,2.51-2.15,1.26.39.5-.09-.09-.21-.23a12.14,12.14,0,0,0-.93-1,13.46,13.46,0,0,0-3.39-2.45c-4.22-2.09-8.05.19-10.68,3.65-1,1.26-3.12,0-2.15-1.26C225.46,232.8,230.07,229.85,235.34,232Z" transform="translate(-32.55 -54.4)"/><path class="cls-31" d="M221.82,237.73c4.72.1,9.44.26,14.16.13s9.39-.65,14.11-.24c2.63.23,5.41.33,5.53,3.14,0,0,.17,4.14.33,9.37-5.15,6.1-13.93,10.11-23.9,10.11s-18.76-4-23.9-10.11c.15-5.23.32-9.37.32-9.37C209.42,237.47,220.42,237.7,221.82,237.73Z" transform="translate(-32.55 -54.4)"/><path class="cls-11" d="M215.84,251.5c9.83,5.22,22.06,4.37,32,0,1-.42,1.82,1,.84,1.44-10.56,4.61-23.31,5.52-33.72,0C214.06,252.44,214.9,251,215.84,251.5Z" transform="translate(-32.55 -54.4)"/><path class="cls-6" d="M243.92,270.77c-.46-2-.94-4.09-1.47-6.19-5.49-22-12.36-30.68-17.4-33s0,26.1,0,26.1-6.87-16.94-16.94-27.93-20.61-11-17-4.12,10.08,51.74,10.53,55.41,23.36,27.47,23.36,27.47c22.9,52.67,87,47.63,87,47.63S272.68,325.49,260.77,315C250,305.43,248.22,289.91,243.92,270.77Z" transform="translate(-32.55 -54.4)"/></svg>