<svg xmlns="http://www.w3.org/2000/svg" xmlns:xlink="http://www.w3.org/1999/xlink" viewBox="0 0 254.63 228.99"><defs><style>.cls-1{fill:none;}.cls-2{mix-blend-mode:screen;}.cls-3{fill:#27253f;}.cls-4{fill:#3a4d57;}.cls-5{fill:url(#New_Gradient_Swatch_15);}.cls-6{fill:url(#linear-gradient);}.cls-7{fill:url(#New_Pattern_Swatch_5);}.cls-8{fill:url(#radial-gradient);}.cls-9{fill:url(#New_Gradient_Swatch_3);}.cls-10{fill:url(#New_Gradient_Swatch_15-2);}.cls-11{fill:url(#New_Gradient_Swatch_15-3);}.cls-12{fill:url(#New_Gradient_Swatch_3-2);}.cls-13{fill:url(#New_Gradient_Swatch_3-3);}</style><linearGradient id="New_Gradient_Swatch_15" x1="114.64" y1="106.52" x2="114.64" y2="18.88" gradientUnits="userSpaceOnUse"><stop offset="0" stop-color="#efcf64"/><stop offset="1" stop-color="#ff7159"/></linearGradient><linearGradient id="linear-gradient" x1="114.64" y1="114.83" x2="114.64" y2="195.29" gradientUnits="userSpaceOnUse"><stop offset="0.31" stop-color="#68acff"/><stop offset="0.47" stop-color="#65a7ff"/><stop offset="0.65" stop-color="#5b99ff"/><stop offset="0.85" stop-color="#4a81ff"/><stop offset="1" stop-color="#3b6bff"/></linearGradient><pattern id="New_Pattern_Swatch_5" data-name="New Pattern Swatch 5" width="57.39" height="57.39" patternTransform="translate(5.71 -12.21) scale(0.94)" patternUnits="userSpaceOnUse" viewBox="0 0 57.39 57.39"><rect class="cls-1" width="57.39" height="57.39"/><g class="cls-2"><rect class="cls-3" x="5.37" y="4.3" width="9.5" height="1.5"/><rect class="cls-3" x="42.59" y="41.3" width="9.5" height="1.5"/><rect class="cls-3" x="13.25" y="34.3" width="9.5" height="1.5"/><rect class="cls-3" x="26.62" y="47.31" width="9.5" height="1.5"/><rect class="cls-3" x="21.86" y="11.31" width="4.17" height="1.5"/><rect class="cls-3" x="35.69" y="4.4" width="4.17" height="1.5"/><rect class="cls-3" x="50.97" y="11.6" width="4.17" height="1.5"/><rect class="cls-3" x="51.33" y="49.3" width="4.17" height="1.5"/><rect class="cls-3" x="6.42" y="48.9" width="4.17" height="1.5"/><rect class="cls-3" x="29.86" y="39.8" width="4.17" height="1.5"/><rect class="cls-3" x="8.5" y="18.94" width="9.5" height="1.5"/><path class="cls-3" d="M43.63,5.15a1,1,0,1,1-1-1A1,1,0,0,1,43.63,5.15Z"/><path class="cls-3" d="M48.38,5.15a1,1,0,1,1-1-1A1,1,0,0,1,48.38,5.15Z"/><path class="cls-3" d="M9.54,32.73a1,1,0,1,1-1-1A1,1,0,0,1,9.54,32.73Z"/><path class="cls-3" d="M15.91,12.81a1,1,0,1,1-1-1A1,1,0,0,1,15.91,12.81Z"/><circle class="cls-3" cx="50.29" cy="54.14" r="1.04"/><circle class="cls-3" cx="33.44" cy="11.77" r="1.04"/></g><g class="cls-2"><rect class="cls-4" x="34.02" y="29.39" width="4.17" height="1.5"/><rect class="cls-4" x="44.22" y="21.8" width="4.17" height="1.5"/><rect class="cls-4" x="52.09" y="21.8" width="4.17" height="1.5"/><rect class="cls-4" x="22.9" y="50.8" width="4.17" height="1.5"/><rect class="cls-4" x="43.18" y="46.56" width="4.17" height="1.5"/><rect class="cls-4" x="37.37" y="15.18" width="9.5" height="1.5"/><rect class="cls-4" x="28.69" y="19.69" width="9.5" height="1.5"/><rect class="cls-4" x="39.28" y="34.68" width="9.5" height="1.5"/><path class="cls-4" d="M11.71,11.31a1,1,0,1,1-1-1A1,1,0,0,1,11.71,11.31Z"/><path class="cls-4" d="M26.62,27.59a1,1,0,1,1-1-1A1,1,0,0,1,26.62,27.59Z"/><path class="cls-4" d="M30.89,27.59a1,1,0,1,1-1-1A1,1,0,0,1,30.89,27.59Z"/><path class="cls-4" d="M43.16,27.59a1,1,0,1,1-1-1A1,1,0,0,1,43.16,27.59Z"/><path class="cls-4" d="M23.94,42.05a1,1,0,1,1-1-1A1,1,0,0,1,23.94,42.05Z"/><circle class="cls-4" cx="2.67" cy="1.97" r="1.04"/><path class="cls-4" d="M5.79,26.55a1,1,0,1,1-1-1A1,1,0,0,1,5.79,26.55Z"/></g></pattern><radialGradient id="radial-gradient" cx="41.59" cy="33.58" r="52.37" gradientUnits="userSpaceOnUse"><stop offset="0" stop-color="#efff64"/><stop offset="1" stop-color="#f5ab60"/></radialGradient><linearGradient id="New_Gradient_Swatch_3" x1="97.9" y1="130.47" x2="154.14" y2="227.89" gradientUnits="userSpaceOnUse"><stop offset="0" stop-color="#5b2a8d"/><stop offset="0.17" stop-color="#4b2786"/><stop offset="0.43" stop-color="#38247d"/><stop offset="0.7" stop-color="#2e2379"/><stop offset="1" stop-color="#2a2277"/></linearGradient><linearGradient id="New_Gradient_Swatch_15-2" x1="72.04" y1="106.39" x2="72.04" y2="72.49" xlink:href="#New_Gradient_Swatch_15"/><linearGradient id="New_Gradient_Swatch_15-3" x1="158.72" y1="77.2" x2="158.72" y2="5.75" xlink:href="#New_Gradient_Swatch_15"/><linearGradient id="New_Gradient_Swatch_3-2" x1="158.72" y1="90.82" x2="158.72" y2="232.94" xlink:href="#New_Gradient_Swatch_3"/><linearGradient id="New_Gradient_Swatch_3-3" x1="203.5" y1="90.82" x2="203.5" y2="232.94" xlink:href="#New_Gradient_Swatch_3"/></defs><title>Asset 1</title><g id="Layer_2" data-name="Layer 2"><g id="OBJECTS"><path class="cls-5" d="M0,114.64a114.64,114.64,0,0,1,229.28,0Z"/><path class="cls-6" d="M229.28,114.64a114.21,114.21,0,0,1-8.76,44,70.79,70.79,0,0,0-12.09-1c-15.23,0-29.53,5-41.89,13.78-11.58,8.2-22.3,16.47-35.65,21.72A115.06,115.06,0,0,1,89,201a114.17,114.17,0,0,1-70.84-24.5A114.15,114.15,0,0,1,0,114.64Z"/><path class="cls-7" d="M229.28,114.64a114.21,114.21,0,0,1-8.76,44,70.79,70.79,0,0,0-12.09-1c-15.23,0-29.53,5-41.89,13.78-11.58,8.2-22.3,16.47-35.65,21.72A115.06,115.06,0,0,1,89,201a114.17,114.17,0,0,1-70.84-24.5A114.15,114.15,0,0,1,0,114.64Z"/><circle class="cls-8" cx="51.71" cy="42.53" r="33.58"/><path class="cls-9" d="M162.83,174.05c-.42.36-.84.72-1.28,1.06l-.07.07s0,.06-.09.08l-.08.06,0-.16a199.66,199.66,0,0,1-20,13.05l-.06.23c-39,20.61-89.82,15.14-123.11-11.91,49.31,77.62,167.55,67,202.39-17.88C200.07,154.91,179.08,161.31,162.83,174.05Z"/><path class="cls-10" d="M92.92,93.07a4.79,4.79,0,0,0,.72-2.52,4.87,4.87,0,0,0-4.86-4.86,5.31,5.31,0,0,0-1.07.12,6.34,6.34,0,0,0-12.54.75,5.72,5.72,0,0,0-10,3.56,7.09,7.09,0,0,0-12.53,4.19,3.9,3.9,0,0,0-5.44,2.11h49.7A4.75,4.75,0,0,0,92.92,93.07Z"/><path class="cls-11" d="M198.83,53.05a9.3,9.3,0,0,0-10-13.94,12.19,12.19,0,0,0-24.09,1.44,11,11,0,0,0-19.23,6.83,13.61,13.61,0,0,0-24.08,8,7.36,7.36,0,0,0-3.4-.83,7.53,7.53,0,0,0-7,4.87h95.47A9.14,9.14,0,0,0,198.83,53.05Z"/><path class="cls-12" d="M177.46,100l-1.52,3.63-2.09-4.13a31.82,31.82,0,0,0-13.6,2.36,18.9,18.9,0,0,0,3.32-3.6L161.29,97l3.24-.24a23.84,23.84,0,0,0,3-8.19,26.08,26.08,0,0,0-11.49,4.54l.68,1.83-2.06-.71a18.37,18.37,0,0,0-5.19,7.85,25.43,25.43,0,0,0-7.65-1.45l-.25,3.31-2.05-3.29a34.52,34.52,0,0,0-14.85,4.42s3.19,2.77,9.68,4.29l2.4-2.24-.94,2.55a40.37,40.37,0,0,0,8.8.64,5,5,0,0,0-.38,1.47c-8,.68-12.32,3.67-14.62,7.31l5.92-.95-7.37,4c-2.1,6.31.2,13.12.2,13.12a38.15,38.15,0,0,0,12.87-6.9l-.64-4,3.08,1.86a33.06,33.06,0,0,0,4-4.73l-1.54-2.28,2.63.62c.48-.8.94-1.63,1.36-2.5a5.09,5.09,0,0,0,4-3.4c1,1.85,2.2,4.12,3.47,6.77,1.65,3.41,3.45,7.43,5.22,12,1.49,3.8,2.95,7.95,4.28,12.39s2.54,9.12,3.51,14c.81,4.08,1.46,8.31,1.9,12.66,0,0,1,.8,4.93.17s5.46-1.83,5.46-1.83a102.09,102.09,0,0,0-2.3-13.44,115.23,115.23,0,0,0-4.53-14.41,127.87,127.87,0,0,0-5.42-12.13c-2.34-4.59-4.71-8.6-6.84-11.92-1.45-2.25-2.79-4.19-3.94-5.78a4.63,4.63,0,0,0,.72-.93,68.35,68.35,0,0,0,8.23,2l2.14-3.18-.09,3.5a47.54,47.54,0,0,0,9.13.38c.57-1.74,1.49-4.18,1.49-4.18l1.53,3.88c6.59-1,9.67-3.33,9.67-3.33C188,104.15,182.65,101.12,177.46,100Z"/><path class="cls-13" d="M254.63,80.86a46.51,46.51,0,0,0-18-11l-2.73,1.92.22-2.63a38.83,38.83,0,0,0-12-1,11.59,11.59,0,0,0,2.3-2.13l-1.86-1.39,2.46.59A11.6,11.6,0,0,0,226.83,61a35,35,0,0,0-10.52,1.56l-2.69,3.28-.16-2.23a19.85,19.85,0,0,0-9.38,7.89,3.76,3.76,0,0,0-1.35-.31,19.88,19.88,0,0,0-9.18-7.58l-.16,2.23-2.69-3.28A35,35,0,0,0,180.18,61,11.6,11.6,0,0,0,182,65.13l2.45-.59-1.85,1.39a11.06,11.06,0,0,0,2.3,2.13,38.87,38.87,0,0,0-12,1l.22,2.63-2.73-1.92a46.55,46.55,0,0,0-18,11,37.3,37.3,0,0,0,8.83,2.41c.88-1.44,2.34-3.78,2.34-3.78l-.61,4.06a81.91,81.91,0,0,0,11.5.79l3.5-6.16.94,6.09a122.55,122.55,0,0,0,12.53-1.18h0A28.78,28.78,0,0,0,178.08,91l3.68.82h-4.43A32.07,32.07,0,0,0,173,98.17l2.06.72L171.66,101a36.92,36.92,0,0,0-2.78,10.25,46.68,46.68,0,0,0,8.91-2.93l-.34-4.77,3.2,3.45a52.31,52.31,0,0,0,13.81-9.87l-4.19-3.34,6.08,1.31a45.27,45.27,0,0,0,4.88-6.63c-.09,1.67-.19,3.45-.3,5.32-.26,4.56-.55,9.65-.85,15s-.63,11.15-1,16.72c-.3,5.34-.6,10.57-.87,15.39-.31,5.47-.59,10.41-.82,14.37h0c-.34,6-.55,9.78-.55,9.78a19.51,19.51,0,0,0,6.61,1.65,19.52,19.52,0,0,0,6.62-1.65s-.21-3.78-.55-9.78h0c-.22-4-.5-8.9-.81-14.37-.27-4.82-.57-10.05-.87-15.39-.32-5.57-.64-11.27-1-16.72s-.58-10.41-.84-15c-.11-1.87-.21-3.65-.3-5.32a45.27,45.27,0,0,0,4.88,6.63l6.08-1.31-4.19,3.34A52.31,52.31,0,0,0,226.36,107l3.2-3.45-.35,4.77a46.93,46.93,0,0,0,8.91,2.93A36.66,36.66,0,0,0,235.35,101L232,98.89l2.06-.72a32.07,32.07,0,0,0-4.34-6.31h-4.43l3.68-.82a28.77,28.77,0,0,0-13.34-7.94h0a123,123,0,0,0,12.54,1.18l.94-6.09,3.49,6.16a82.06,82.06,0,0,0,11.51-.79l-.61-4.06s1.46,2.34,2.34,3.78A37.5,37.5,0,0,0,254.63,80.86Z"/></g></g></svg>